<svg id="visual" viewBox="0 0 900 600" width="900" height="600" xmlns="http://www.w3.org/2000/svg" xmlns:xlink="http://www.w3.org/1999/xlink" version="1.1"><path d="M0 85L13.7 80C27.3 75 54.7 65 82 67C109.3 69 136.7 83 163.8 98C191 113 218 129 245.2 130C272.3 131 299.7 117 327 101C354.3 85 381.7 67 409 62C436.3 57 463.7 65 491 69C518.3 73 545.7 73 573 87C600.3 101 627.7 129 654.8 129C682 129 709 101 736.2 87C763.3 73 790.7 73 818 79C845.3 85 872.7 97 886.3 103L900 109L900 0L886.3 0C872.7 0 845.3 0 818 0C790.7 0 763.3 0 736.2 0C709 0 682 0 654.8 0C627.7 0 600.3 0 573 0C545.7 0 518.3 0 491 0C463.7 0 436.3 0 409 0C381.7 0 354.3 0 327 0C299.7 0 272.3 0 245.2 0C218 0 191 0 163.8 0C136.7 0 109.3 0 82 0C54.7 0 27.3 0 13.7 0L0 0Z" fill="#6198ff"></path><path d="M0 169L13.7 168C27.3 167 54.7 165 82 193C109.3 221 136.7 279 163.8 297C191 315 218 293 245.2 293C272.3 293 299.7 315 327 312C354.3 309 381.7 281 409 272C436.3 263 463.7 273 491 272C518.3 271 545.7 259 573 269C600.3 279 627.7 311 654.8 329C682 347 709 351 736.2 324C763.3 297 790.7 239 818 222C845.3 205 872.7 229 886.3 241L900 253L900 107L886.3 101C872.7 95 845.3 83 818 77C790.7 71 763.3 71 736.2 85C709 99 682 127 654.8 127C627.7 127 600.3 99 573 85C545.7 71 518.3 71 491 67C463.7 63 436.3 55 409 60C381.7 65 354.3 83 327 99C299.7 115 272.3 129 245.2 128C218 127 191 111 163.8 96C136.7 81 109.3 67 82 65C54.7 63 27.3 73 13.7 78L0 83Z" fill="#3c80ff"></path><path d="M0 247L13.7 241C27.3 235 54.7 223 82 250C109.3 277 136.7 343 163.8 364C191 385 218 361 245.2 356C272.3 351 299.7 365 327 361C354.3 357 381.7 335 409 331C436.3 327 463.7 341 491 345C518.3 349 545.7 343 573 347C600.3 351 627.7 365 654.8 381C682 397 709 415 736.2 392C763.3 369 790.7 305 818 290C845.3 275 872.7 309 886.3 326L900 343L900 251L886.3 239C872.7 227 845.3 203 818 220C790.7 237 763.3 295 736.2 322C709 349 682 345 654.8 327C627.7 309 600.3 277 573 267C545.7 257 518.3 269 491 270C463.7 271 436.3 261 409 270C381.7 279 354.3 307 327 310C299.7 313 272.3 291 245.2 291C218 291 191 313 163.8 295C136.7 277 109.3 219 82 191C54.7 163 27.3 165 13.7 166L0 167Z" fill="#0066ff"></path><path d="M0 499L13.7 501C27.3 503 54.7 507 82 514C109.3 521 136.7 531 163.8 526C191 521 218 501 245.2 489C272.3 477 299.7 473 327 474C354.3 475 381.7 481 409 493C436.3 505 463.7 523 491 525C518.3 527 545.7 513 573 509C600.3 505 627.7 511 654.8 521C682 531 709 545 736.2 548C763.3 551 790.7 543 818 538C845.3 533 872.7 531 886.3 530L900 529L900 341L886.3 324C872.7 307 845.3 273 818 288C790.7 303 763.3 367 736.2 390C709 413 682 395 654.8 379C627.7 363 600.3 349 573 345C545.7 341 518.3 347 491 343C463.7 339 436.3 325 409 329C381.7 333 354.3 355 327 359C299.7 363 272.3 349 245.2 354C218 359 191 383 163.8 362C136.7 341 109.3 275 82 248C54.7 221 27.3 233 13.7 239L0 245Z" fill="#0059dd"></path><path d="M0 601L13.7 601C27.3 601 54.7 601 82 601C109.3 601 136.7 601 163.8 601C191 601 218 601 245.2 601C272.3 601 299.7 601 327 601C354.3 601 381.7 601 409 601C436.3 601 463.7 601 491 601C518.3 601 545.7 601 573 601C600.3 601 627.7 601 654.8 601C682 601 709 601 736.2 601C763.3 601 790.7 601 818 601C845.3 601 872.7 601 886.3 601L900 601L900 527L886.3 528C872.7 529 845.3 531 818 536C790.7 541 763.3 549 736.2 546C709 543 682 529 654.8 519C627.7 509 600.3 503 573 507C545.7 511 518.3 525 491 523C463.7 521 436.3 503 409 491C381.7 479 354.3 473 327 472C299.7 471 272.3 475 245.2 487C218 499 191 519 163.8 524C136.7 529 109.3 519 82 512C54.7 505 27.3 501 13.7 499L0 497Z" fill="#004cbb"></path></svg>